<svg xmlns="http://www.w3.org/2000/svg" width="17.121" height="18.132" viewBox="0 0 17.121 18.132"><defs><style>.a{fill:#f22;stroke:#f22;stroke-width:0.5px;}</style></defs><g transform="translate(-13.55 0.25)"><path class="a" d="M27.265,11.327a3.155,3.155,0,0,0-2.5,1.23L19.925,9.852a3.163,3.163,0,0,0,.176-1.04,3.093,3.093,0,0,0-.179-1.043l4.84-2.7a3.149,3.149,0,1,0-.652-1.915A3.078,3.078,0,0,0,24.289,4.2L19.453,6.9a3.149,3.149,0,1,0,.007,3.826l4.84,2.705a3.151,3.151,0,1,0,2.965-2.1Zm0-10.335A2.164,2.164,0,1,1,25.1,3.156,2.166,2.166,0,0,1,27.265.992ZM16.956,10.976a2.164,2.164,0,1,1,2.164-2.164A2.166,2.166,0,0,1,16.956,10.976Zm10.309,5.664a2.164,2.164,0,1,1,2.164-2.164A2.166,2.166,0,0,1,27.265,16.639Z" transform="translate(0 0)"/></g></svg>