<svg xmlns="http://www.w3.org/2000/svg" xmlns:xlink="http://www.w3.org/1999/xlink" width="173" height="48" viewBox="0 0 173 48"><defs><style>.a,.b,.g{fill:#181d33;}.a{font-size:25px;font-family:Poppins-SemiBold, Poppins;font-weight:600;}.a,.b{letter-spacing:0.04em;}.b{font-size:8px;font-family:Poppins-Medium, Poppins;font-weight:500;opacity:0.361;}.c{fill:url(#a);}.d{fill:rgba(248,248,248,0.85);}.e{fill:rgba(248,248,248,0.86);}.f{fill:#fff;}.g{font-size:9px;font-family:Poppins-Light, Poppins;font-weight:300;opacity:0.444;}</style><linearGradient id="a" x1="-0.122" y1="-0.13" x2="1.091" y2="1.107" gradientUnits="objectBoundingBox"><stop offset="0" stop-color="#11e0cd"/><stop offset="1" stop-color="#06c4b3"/></linearGradient></defs><g transform="translate(-15127 14673.037)"><text class="a" transform="translate(15183 -14643.037)"><tspan x="0" y="0">Inomas</tspan></text><text class="b" transform="translate(15283 -14661.037)"><tspan x="0" y="0">TM</tspan></text><rect class="c" width="48" height="48" rx="8" transform="translate(15127 -14673.037)"/><g transform="translate(15133.98 -14663.77)"><g transform="matrix(-0.766, 0.643, -0.643, -0.766, 33.613, 16.408)"><path class="d" d="M15.6,1.879C-1.125-1.966-3.342-.016,3.941,8.716s14.3,7.194,17.031,5.4S32.336,5.725,15.6,1.879Z" transform="translate(0 0)"/><path class="e" d="M15.6,1.879C-1.125-1.966-3.342-.016,3.941,8.716s14.3,7.194,17.031,5.4S32.336,5.725,15.6,1.879Z" transform="translate(2.345 3.442)"/><path class="f" d="M15.6,1.879C-1.125-1.966-3.342-.016,3.941,8.716s14.3,7.194,17.031,5.4S32.336,5.725,15.6,1.879Z" transform="translate(0 1.247)"/></g><g transform="translate(11.363 0)"><circle class="e" cx="4.543" cy="4.543" r="4.543" transform="translate(0.947 0.947)"/><circle class="f" cx="4.543" cy="4.543" r="4.543" transform="translate(0 0)"/></g></g><text class="g" transform="translate(15183 -14632.037)"><tspan x="0" y="0">An automated restaurant!</tspan></text></g></svg>