<svg xmlns="http://www.w3.org/2000/svg" width="27.199" height="28" viewBox="0 0 27.199 28"><defs><style>.a{fill:#ff2d20;fill-rule:evenodd;}</style></defs><path class="a" d="M.015,6.334A.443.443,0,0,0,0,6.449v6.01a.438.438,0,0,0,.22.38l5.044,2.9V21.5a.439.439,0,0,0,.219.38l10.53,6.062a.471.471,0,0,0,.077.032c.01,0,.019.009.03.012a.441.441,0,0,0,.225,0c.012,0,.023-.01.035-.014a.456.456,0,0,0,.072-.03L26.979,21.88a.439.439,0,0,0,.22-.38V3.47a.448.448,0,0,0-.015-.115c0-.013-.011-.024-.015-.037a.432.432,0,0,0-.028-.068.41.41,0,0,0-.03-.039.446.446,0,0,0-.039-.051.428.428,0,0,0-.043-.033.357.357,0,0,0-.048-.038h0L21.715.059a.439.439,0,0,0-.438,0L16.013,3.089h0a.537.537,0,0,0-.048.037.518.518,0,0,0-.043.033.513.513,0,0,0-.039.051.4.4,0,0,0-.03.039.457.457,0,0,0-.028.068c0,.013-.012.024-.015.037a.443.443,0,0,0-.015.114V14.731l-4.387-2.526V6.448a.443.443,0,0,0-.015-.114c0-.013-.011-.025-.015-.037a.494.494,0,0,0-.028-.068c-.008-.014-.02-.026-.03-.039a.451.451,0,0,0-.039-.051.421.421,0,0,0-.043-.033.442.442,0,0,0-.048-.038h0L5.922,3.038a.439.439,0,0,0-.438,0L.22,6.069a.484.484,0,0,0-.049.037c-.014.011-.03.021-.042.033a.512.512,0,0,0-.039.051.331.331,0,0,0-.03.039A.434.434,0,0,0,.031,6.3a.314.314,0,0,0-.015.037Zm.862,5.871v-5L2.72,8.268,5.265,9.733v5L.877,12.205Zm5.264,9.041v-5l2.5,1.43,7.148,4.08V26.8L6.142,21.246ZM26.321,4.228V21.246L16.671,26.8V21.755L21.712,18.9h0a20.393,20.393,0,0,1,.089-.068v0a.418.418,0,0,0,.036-.046.468.468,0,0,0,.033-.043v0a.349.349,0,0,0,.023-.055.324.324,0,0,0,.021-.049h0a.419.419,0,0,0,.009-.064.38.38,0,0,0,.007-.049h0V6.754l2.544-1.466,1.842-1.059ZM21.5.945,25.882,3.47,21.5,5.994,17.111,3.469,21.5.945ZM19.215,16.7,16.67,15.236V4.228l1.842,1.06,2.545,1.465V17.762ZM5.7,3.924l4.385,2.525L5.7,8.974,1.318,6.448,5.7,3.924Zm.439,5.809L8.687,8.268l1.842-1.06v5L7.984,13.67,6.142,14.731v-5ZM16.233,21,9.8,17.324,6.585,15.489l4.382-2.523,5.046,2.9,4.6,2.647Z" transform="translate(0 0)"/></svg>