<svg xmlns="http://www.w3.org/2000/svg" width="12.568" height="28" viewBox="0 0 12.568 28"><defs><style>.a{fill:#10aa50;}.b{fill:#b8c4c2;}.c{fill:#12924f;}</style></defs><path class="a" d="M6.544,15.833c1.475-6.507,4.55-8.24,5.334-9.464a13.929,13.929,0,0,0,.858-1.678,1.708,1.708,0,0,0,.609,1.381,15.6,15.6,0,0,1,5.529,11.688c.329,6.894-5.068,11.145-5.781,11.584a1.584,1.584,0,0,1-1.542-.242,13.425,13.425,0,0,1-5.01-13.268" transform="translate(-6.321 -4.69)"/><path class="b" d="M67.484,222.46a14.173,14.173,0,0,0,.578,3.673s-.226,1.624-.385,3.345h-.563a31.286,31.286,0,0,0-.614-3.6C67.228,225.517,67.456,223.957,67.484,222.46Z" transform="translate(-61.292 -201.478)"/><path class="c" d="M76.078,30.462h0c.736-.34.949-1.933.982-3.417a69.934,69.934,0,0,1-.159-7.356c.039-1.287-.018-11.922.317-13.479a12.938,12.938,0,0,1-.791,1.531c-.784,1.226-3.86,2.958-5.334,9.465A13.418,13.418,0,0,0,76.078,30.462Z" transform="translate(-70.869 -6.064)"/></svg>