<svg xmlns="http://www.w3.org/2000/svg" width="31.441" height="28" viewBox="0 0 31.441 28"><defs><style>.a{fill:#61dafb;}</style></defs><path class="a" d="M175.7,92c0-2.083,2.608-4.057,6.607-5.281-.923-4.076-.513-7.319,1.295-8.357a2.81,2.81,0,0,1,1.436-.359v1.429a1.484,1.484,0,0,0-.731.167c-.872.5-1.25,2.4-.955,4.851.07.6.186,1.237.327,1.884a31.057,31.057,0,0,1,4.07-.7,31.266,31.266,0,0,1,2.666-3.2c-2.089-1.942-4.05-3.006-5.383-3.006V78h0c1.762,0,4.07,1.256,6.4,3.435,2.333-2.166,4.64-3.409,6.4-3.409v1.429c-1.327,0-3.294,1.057-5.383,2.986a30.267,30.267,0,0,1,2.647,3.2,29.927,29.927,0,0,1,4.076.7c.147-.641.256-1.263.333-1.859.3-2.448-.071-4.352-.936-4.858a1.426,1.426,0,0,0-.737-.167V78.032h0a2.858,2.858,0,0,1,1.448.359c1.8,1.038,2.2,4.275,1.275,8.338,3.986,1.23,6.582,3.2,6.582,5.274s-2.608,4.057-6.607,5.281c.923,4.076.513,7.319-1.295,8.357A2.817,2.817,0,0,1,197.8,106c-1.762,0-4.07-1.256-6.4-3.435-2.333,2.166-4.64,3.409-6.4,3.409a2.857,2.857,0,0,1-1.448-.359c-1.8-1.038-2.2-4.275-1.275-8.338C178.3,96.054,175.7,94.08,175.7,92Zm8.344-4.275c.237.827.532,1.679.865,2.531.263-.513.538-1.025.84-1.538s.609-1.013.923-1.5C185.762,87.357,184.884,87.523,184.044,87.729Zm2.935,6.825c.5.865,1.013,1.686,1.545,2.448.955.083,1.923.128,2.9.128s1.935-.045,2.884-.122q.8-1.144,1.551-2.435.731-1.259,1.333-2.551c-.4-.859-.846-1.718-1.327-2.557-.5-.865-1.013-1.686-1.545-2.448-.955-.083-1.923-.128-2.9-.128s-1.935.045-2.884.122q-.8,1.144-1.551,2.435-.731,1.259-1.333,2.551C186.057,92.856,186.5,93.714,186.98,94.554Zm-2.07-.833c-.346.859-.641,1.718-.884,2.551.84.205,1.724.378,2.64.513-.314-.493-.628-1-.923-1.519S185.172,94.233,184.91,93.721Zm6.5,6.838a26.417,26.417,0,0,0,1.782-2.051c-.577.026-1.166.045-1.762.045s-1.2-.013-1.782-.045A25.014,25.014,0,0,0,191.408,100.559Zm4.768-3.775c.91-.135,1.788-.3,2.628-.506-.237-.827-.532-1.679-.865-2.531-.263.513-.538,1.025-.84,1.538S196.49,96.3,196.176,96.784ZM191.44,83.447a26.425,26.425,0,0,0-1.782,2.051c.577-.026,1.166-.045,1.762-.045s1.2.013,1.782.045A25.01,25.01,0,0,0,191.44,83.447Zm4.743,3.775c.314.493.628,1,.923,1.519s.57,1.025.833,1.538c.346-.859.641-1.718.884-2.551C197.983,87.53,197.1,87.357,196.183,87.222Zm5.8,8.024c2.269-.968,3.736-2.237,3.736-3.243s-1.468-2.282-3.736-3.243c-.551-.237-1.154-.449-1.775-.647a30.781,30.781,0,0,1-1.442,3.9,30.347,30.347,0,0,1,1.423,3.884C200.823,95.7,201.425,95.483,201.982,95.246Zm-3.448,9.158c.872-.5,1.25-2.4.955-4.851-.07-.6-.186-1.237-.327-1.884a31.059,31.059,0,0,1-4.07.7,31.264,31.264,0,0,1-2.666,3.2c2.089,1.942,4.05,3.006,5.383,3.006A1.529,1.529,0,0,0,198.535,104.4Zm-15.2-4.883c-.3,2.448.07,4.352.936,4.858a1.426,1.426,0,0,0,.737.167c1.327,0,3.294-1.057,5.383-2.986a30.27,30.27,0,0,1-2.647-3.2,29.928,29.928,0,0,1-4.076-.7A17.945,17.945,0,0,0,183.333,99.521Zm-2.467-4.275c.551.237,1.154.449,1.775.647a30.781,30.781,0,0,1,1.442-3.9,30.345,30.345,0,0,1-1.423-3.884c-.634.2-1.237.417-1.8.654-2.269.968-3.736,2.237-3.736,3.243S178.6,94.285,180.866,95.246Z" transform="translate(-175.7 -78)"/><path class="a" d="M320.8,78.4Z" transform="translate(-298.658 -78.374)"/><circle class="a" cx="2.929" cy="2.929" r="2.929" transform="translate(12.798 11.074)"/><path class="a" d="M520.5,78.1Z" transform="translate(-511.156 -78.094)"/></svg>